PathFileType        4      (X/Y/Z)      C:\Users\pc\Desktop\IMUTRC\Sujet_08\Sujet_08_velo_100.trc         
DataRate	CameraRate	NumFrames	NumMarkers	Units	OrigDataRate	OrigDataStartFrame	OrigNumFrames
60.0	60.0	4	64	mm	60.0	234	932
Frame#	Time	pHipOrigin			pRightASI			pLeftASI			pRightCSI			pLeftCSI			pRightIschialTub			pLeftIschialTub			pSacrum			pL5SpinalProcess			pL3SpinalProcess			pT12SpinalProcess			pIJ			pT4SpinalProcess			pT8SpinalProcess			pPX			pC7SpinalProcess			pTopOfHead			pRightAuricularis			pLeftAuricularis			pBackOfHead			pRightAcromion			pLeftAcromion			pRightArmLatEpicondyle			pRightArmMedEpicondyle			pLeftArmLatEpicondyle			pLeftArmMedEpicondyle			pRightUlnarStyloid			pRightRadialStyloid			pRightOlecranon			pLeftUlnarStyloid			pLeftRadialStyloid			pLeftOlecranon			pRightTopOfHand			pRightPinky			pRightBallHand			pLeftTopOfHand			pLeftPinky			pLeftBallHand			pRightGreaterTrochanter			pRightKneeLatEpicondyle			pRightKneeMedEpicondyle			pRightPatella			pLeftGreaterTrochanter			pLeftKneeLatEpicondyle			pLeftKneeMedEpicondyle			pLeftPatella			pRightTibialTub			pRightLatMalleolus			pRightMedMalleolus			pLeftTibialTub			pLeftLatMalleolus			pLeftMedMalleolus			pRightHeelFoot			pRightFirstMetatarsal			pRightFifthMetatarsal			pRightPivotFoot			pRightHeelCenter			pRightToe			pLeftHeelFoot			pLeftFirstMetatarsal			pLeftFifthMetatarsal			pLeftPivotFoot			pLeftHeelCenter			pLeftToe			
		X1	Y1	Z1	X2	Y2	Z2	X3	Y3	Z3	X4	Y4	Z4	X5	Y5	Z5	X6	Y6	Z6	X7	Y7	Z7	X8	Y8	Z8	X9	Y9	Z9	X10	Y10	Z10	X11	Y11	Z11	X12	Y12	Z12	X13	Y13	Z13	X14	Y14	Z14	X15	Y15	Z15	X16	Y16	Z16	X17	Y17	Z17	X18	Y18	Z18	X19	Y19	Z19	X20	Y20	Z20	X21	Y21	Z21	X22	Y22	Z22	X23	Y23	Z23	X24	Y24	Z24	X25	Y25	Z25	X26	Y26	Z26	X27	Y27	Z27	X28	Y28	Z28	X29	Y29	Z29	X30	Y30	Z30	X31	Y31	Z31	X32	Y32	Z32	X33	Y33	Z33	X34	Y34	Z34	X35	Y35	Z35	X36	Y36	Z36	X37	Y37	Z37	X38	Y38	Z38	X39	Y39	Z39	X40	Y40	Z40	X41	Y41	Z41	X42	Y42	Z42	X43	Y43	Z43	X44	Y44	Z44	X45	Y45	Z45	X46	Y46	Z46	X47	Y47	Z47	X48	Y48	Z48	X49	Y49	Z49	X50	Y50	Z50	X51	Y51	Z51	X52	Y52	Z52	X53	Y53	Z53	X54	Y54	Z54	X55	Y55	Z55	X56	Y56	Z56	X57	Y57	Z57	X58	Y58	Z58	X59	Y59	Z59	X60	Y60	Z60	X61	Y61	Z61	X62	Y62	Z62	X63	Y63	Z63	X64	Y64	Z64	
234	3.883	0.0	1249.97582	7.653894434872941E-14	99.00665154212575	1316.22325	130.1130629993365	84.75808483479885	1328.01852	-133.6891666891507	76.49919202469475	1392.81173	111.43798972933288	64.71997359103054	1402.50648	-105.78672504495823	-65.83484478067527	1211.35842	56.338137920076846	-71.77638802243202	1216.20579	-52.212326906286904	-55.66740379259253	1289.5627	4.755576013150844	9.291822045880817	1371.48329	5.265644988012778	77.90181112224465	1463.74495	2.9331313368342196	140.49364067956373	1548.25082	-0.01976194927015241	387.3697233737405	1585.57558	-25.51807747350394	277.83889628318497	1678.48356	-11.11838883068857	210.93330207784447	1625.16246	-5.035526318013339	299.1700361141359	1508.9871	-17.686921063213696	316.756394421664	1708.69885	-12.00005359916697	486.43777508038613	1876.90268	-41.52557411071689	469.42963779989213	1783.67155	26.253313339794342	420.69668517498405	1799.18314	-98.16539237220442	401.48883576149103	1813.88683	-16.201854940042697	342.66412469583446	1653.11564	138.61521298454701	305.7789558940746	1658.28617	-172.86738000374015	456.7517802803393	1388.4491	140.90568247840707	436.341879913776	1379.07751	83.28184424411845	402.67470113015816	1388.93384	-207.14992818589977	401.2669243342246	1381.5012	-145.8969435322641	560.5631842064719	1159.81469	129.3001863587301	603.2824136284542	1183.08208	111.57053796275095	424.3520425816921	1375.03803	123.21076925040393	521.8626915838672	1164.3389	-189.82252165444854	566.086957728358	1191.16103	-187.72776026093848	378.33567498223437	1374.71488	-179.90340776823766	733.373289851805	1088.55831	214.19102437939296	645.8057416209081	1089.36621	182.0547231052571	603.9721959833882	1132.6694	133.87475765210166	669.2862846943603	1074.33935	-299.4041676374446	594.6618002354371	1082.74146	-243.90270634173882	564.6117019302013	1137.03204	-198.03548616261554	11.796975321407018	1210.55052	157.12554362813114	241.98160853920137	889.00814	124.37108655616187	255.84842560646464	899.18762	49.52684962137539	282.21973795418353	920.67764	94.01322783924395	28.07091082773335	1241.57371	-157.63159358700878	384.11122862735715	1071.75409	-113.88844639567601	381.32607301703126	1071.75409	-36.917107444946616	398.30681106296436	1111.8257	-72.23630102930524	299.8118786777293	863.8018	91.90066122567545	220.253653147673	491.362	119.84939001412673	227.1602813527856	490.23095	59.83567230101265	403.4643184306369	1024.41141	-80.1423803979306	134.31630956979492	760.87592	-142.72724175708538	134.85769889808597	752.79697	-82.79168741078097	156.76025064317395	433.67827	83.6571525065358	297.02816829698617	374.54032	40.418968621618184	297.2108663357183	366.46137	114.60747889162121	316.37696801357845	361.77558	75.42700106806821	191.60446530014542	420.91352	82.09964424450494	388.6533601686118	328.49028	71.74150909007774	48.01717559312493	740.1938	-115.7944232523065	137.40861249735306	614.97001	-78.54195270644068	139.71001444516986	616.10106	-153.1771750575738	150.87520561736798	598.32736	-114.70061301208347	71.89067059873278	711.75588	-115.58928268777424	197.13257724103454	533.21099	-114.27469080967163	
235	3.9	0.0	1249.97582	7.653894434872941E-14	100.64423280043097	1315.73851	129.16696507536273	83.33251690712743	1328.34168	-134.2525901361199	77.94897230607576	1392.327	110.9670781502453	63.665731618840525	1402.66806	-106.03855596556355	-65.19604929637788	1211.35842	57.085078685158834	-72.39955132639481	1216.52895	-51.46966980001635	-55.48387238615923	1289.72428	5.542347223956512	9.415599506999982	1371.32171	5.3695066099859305	78.10953436619096	1463.74495	2.6855764145958902	140.66153224521798	1548.25082	-0.7225950376931156	387.3981976374966	1585.73716	-27.8143764831287	277.803347031136	1678.48356	-12.835639873453925	210.93758450408757	1625.16246	-6.2974991945940815	299.25826555577436	1508.9871	-19.300296395685386	316.57715310191827	1708.86043	-14.048791258677321	486.3424795434675	1876.90268	-43.925728314438715	469.33434226297356	1783.83312	23.853159136072545	420.4776121769462	1799.34472	-100.66940819789934	401.2896786025992	1814.04841	-18.47823168264532	343.8507114467665	1653.11564	136.44698795060503	305.04058121404717	1658.44775	-174.75251618428373	457.1672267682319	1388.12594	140.4105726339304	436.2181024526568	1378.43119	83.1779826221453	402.30336874680074	1388.77226	-207.4615130518192	401.2470084950786	1381.82436	-146.12458261535645	559.3609652752053	1158.84521	129.97881352131952	602.4117030626975	1181.62787	112.10547825295124	424.5597658256384	1374.87645	122.96321432816558	520.991973357666	1164.17732	-189.28758779212433	565.4438785852492	1190.83787	-187.21274223776018	378.0881200599961	1374.87645	-180.11113101218396	732.1511550813925	1086.94252	214.64201245889006	644.5836145109398	1087.912	182.50571761263035	602.7500547850996	1131.37677	134.3257533920432	668.3117048461861	1073.69304	-298.74545631400116	593.7910755813599	1082.25673	-243.3677648189701	563.7409837040003	1136.5473	-197.50055230029133	10.535002444826276	1209.90421	157.12126120188807	220.56802168262948	874.95076	124.7535600435435	235.2216111932667	884.16077	49.72580579064423	262.6471719410517	904.03499	94.46400726867365	28.56602067221001	1244.64371	-157.21614709911617	393.2038935143462	1095.18305	-110.89917815026594	389.4882733929494	1094.052	-34.07580849816869	404.58387525833894	1135.41625	-68.65662740249986	278.9574316093151	847.32073	92.1195255736459	193.00114809180207	476.33515	121.66022152609287	199.55635975270323	475.04252	61.562558030151635	413.75491859008116	1047.51722	-76.56978052684975	151.81593842545902	777.35699	-141.96446016160144	151.67441050447314	769.60119	-81.96915829785898	127.37933814333255	421.39826	84.73667666632288	265.6625416534395	357.89768	41.098686134291675	265.26619049274393	348.84925	115.22315880016914	284.43229217060406	344.00188	76.04268097661615	161.76828229456382	407.50246	83.21900651046016	355.4268032703551	308.13132	72.12527391716641	66.61516818595855	751.34276	-115.58649901873724	164.0692198424987	632.58213	-76.63091728111067	166.94967741761928	633.39002	-151.20210968856267	179.04532667301214	616.74738	-112.57757068399572	92.59714836851478	724.52063	-114.87768252467384	229.39590404520845	555.02417	-111.24817356538358	
236	3.917	0.0	1249.97582	7.653894434872941E-14	101.86636633827524	1314.93061	128.71596290754508	82.38212889646614	1328.98799	-134.62820494572046	79.21093109433598	1391.5191	110.97136180905673	63.10659183068274	1403.15279	-105.87494682615235	-64.82471691302038	1211.19684	57.396663551078284	-72.93877527540658	1217.01369	-51.07842157751284	-55.424124868721194	1289.72428	6.225264473233456	9.806847729503488	1371.32171	5.908730558997698	78.48086674954845	1463.58337	2.99716128051534	141.11680398352655	1548.08924	-0.7624190555407087	387.63012680727644	1585.57558	-29.096258770979336	278.07510145133176	1678.32198	-13.662236334675566	211.3530245641041	1624.8393	-6.792601378626301	299.53001874340185	1508.82552	-20.12690694522751	316.93284564449675	1708.53727	-15.226810691986467	486.5146535353649	1876.7411	-45.89053427944236	469.6502107877044	1783.67155	22.21986796445486	420.5658339581404	1799.02156	-102.28278995824715	401.60554712733006	1813.88683	-20.111522854263004	345.67609244942753	1652.63091	135.02568959342454	304.73328000693914	1658.28617	-175.64314258918648	457.7263665563897	1387.47962	140.24696349451924	436.341879913776	1377.30014	83.28184424411845	402.1397672678339	1388.4491	-208.02064641210092	401.31104609920413	1381.66278	-146.7036318147841	558.8416635932157	1157.391	130.59769316647092	601.7686174917126	1180.17365	112.62050393657394	424.78740490873076	1374.06856	122.94329848901953	520.3090637688335	1163.53101	-189.22783384681023	564.7808771751182	1190.02998	-186.92535563722984	377.9245109205848	1374.5533	-180.6702708003417	731.3842984771645	1085.00357	215.05316886009516	643.7128898568626	1086.13463	183.04065913539907	602.1069833024351	1129.76098	134.8407778430975	667.6686257030773	1072.72356	-298.23043829082286	593.0242266375762	1081.44883	-242.9566019898889	563.0779822938692	1135.90098	-197.21316569976096	9.832177016847751	1209.25789	156.95337606410985	205.40451708700604	865.57917	124.4745385384447	220.28574568073566	874.14286	49.426868446399425	248.62184867256934	892.72446	94.08540780041315	29.184900317361404	1248.03687	-156.69684541712653	399.624657437862	1114.57254	-106.98801147883948	394.75092606185774	1111.8257	-30.292701714104528	408.4365857520344	1154.64416	-63.94733853360795	263.11100976441475	835.36388	91.90025158598513	164.84237036237332	467.60988	122.28875760638284	171.1699493680582	465.83251	62.2110022891432	421.680906137408	1066.58356	-71.18464050396098	171.75555959101303	786.40542	-140.84170359729595	170.02056574882533	779.45752	-80.70698443165527	97.2358526980746	415.25825	84.96539843905484	233.1985717889199	346.42556	42.33325211586713	231.9955194899521	337.53871	116.41361833765392	251.18153700695828	332.04502	77.46077959719325	131.06566348902416	400.06982	83.61132976215889	320.8301358751775	293.42762	73.89049899526742	88.19236418194167	754.0896	-115.40983271796108	193.87264492551276	643.73108	-74.19202174918092	198.2427003719859	644.53898	-148.77884633696755	210.70968967118068	628.86581	-109.84271603860503	116.05518279790948	729.52958	-114.17743088309659	265.64856212018674	571.82839	-107.19438862288723	
237	3.933	0.0	1249.97582	7.653894434872941E-14	102.75700040362241	1313.79956	128.40866812831314	81.57544184651448	1329.47273	-134.67231262237948	80.38895818808957	1390.71121	111.32706077951129	62.81492923178539	1403.63753	-105.27598302014698	-64.57716199078205	1211.03526	57.60438679502459	-73.25035371344994	1217.49842	-50.70709685459978	-55.260523389754425	1289.88585	6.784397833515144	10.094226669589412	1371.16014	6.571725541252534	78.97597659402511	1463.26022	3.412607768407942	141.71577544997635	1547.76608	-0.47075002876726063	388.25329011123927	1585.09085	-29.838915877249878	278.73809520101827	1677.83724	-13.949629363081993	212.15971927450022	1624.51614	-6.748487274091218	300.0692362645375	1508.34078	-20.518147507286606	317.69970867660084	1708.21411	-15.637974753635982	487.18193094386277	1876.09478	-47.439886096109035	470.44126565732154	1783.34839	20.77437776976137	421.04530396183793	1798.21366	-103.35694776958317	402.3126626419961	1813.4021	-21.205604165189502	347.43745116885196	1651.98459	134.18345329142392	305.0448648728586	1657.80144	-176.01447497254395	458.4291932169366	1386.51015	140.41486272061795	436.6093506751603	1376.00751	83.71720657115705	402.09993558954193	1387.96436	-208.47592457828557	401.2712144209121	1381.17804	-147.1589099809687	558.5499945664421	1155.93679	131.1966646329207	601.5808165147884	1178.39628	113.09569028146014	425.38636871473614	1372.93751	123.23496108791696	519.7499239806757	1162.72311	-189.06422470739903	564.325606669378	1189.0605	-186.8855175310617	377.8846728144167	1374.23014	-181.12554130608197	730.9688519892718	1082.90304	215.5482787045718	643.2974497968461	1084.35726	183.53576131943126	601.8153066152173	1128.14519	135.43974288167124	667.0056319533907	1071.43093	-297.9430452624163	592.3612252274454	1080.31778	-242.6692153893586	562.4149873116145	1134.93151	-196.92578675967505	9.604537933755452	1208.77315	156.9732919032559	195.39273621046937	859.60074	124.08885765401519	210.17010318222577	867.6797	49.16496502308909	239.2929850453096	885.61498	93.63997939854562	30.155204167168712	1251.26845	-156.09359152443366	404.1602787529583	1129.92256	-102.33846246694118	398.0046663216717	1125.55992	-25.875067783665532	410.7555842698422	1169.34786	-58.41572277398534	251.25820804443796	827.28493	91.44626475950754	135.87691201086895	464.53988	122.87317834956937	141.97685193346157	462.43935	62.81533887147573	427.5339641877116	1082.25673	-64.58593302828241	193.61585852871505	789.47542	-138.74007709812864	190.03984261051897	783.49699	-78.67367796285662	65.83040846455643	414.77352	85.18983655297541	199.28482164301928	340.12398	44.03872967653013	197.15130483298066	331.56029	117.97112659968475	216.35724461700892	325.09712	79.24591928187196	99.12098887861814	397.96929	84.22702375902736	284.4721238488961	283.40972	76.49795914280081	112.16970672120216	750.2117	-115.32846838197966	226.36360438490294	649.87109	-71.18541268359445	232.470819052843	651.00214	-145.5801538682138	245.30913307495086	636.6216	-106.33244513180794	142.05707881961172	728.23695	-113.24097530594088	305.20764707244473	584.75472	-102.05360378563331	
